<svg width="40" height="40" viewBox="0 0 40 40" fill="none" xmlns="http://www.w3.org/2000/svg">
<path d="M19.9755 40L3.64031 36.0014L0 0H40L36.3559 35.9959L19.9755 40Z" fill="#264DE4"/>
<path d="M33.2362 33.7038L36.3501 2.9436H20V36.9394L33.2362 33.7038Z" fill="#2965F1"/>
<path d="M8.34524 16.296L8.79399 20.7114H20V16.296H8.34524ZM7.44336 7.35913L7.89854 11.7746H20V7.35913H7.44336ZM20 27.7634L19.978 27.7685L14.4011 26.4407L14.0446 22.9192H9.01774L9.71924 29.8521L19.9769 32.3628L20 32.3573V27.7634Z" fill="#EBEBEB"/>
<path d="M31.6228 16.296L32.5267 7.35913H19.9828V11.7746H27.0389L26.5832 16.296H19.9828V20.7115H26.149L25.5676 26.4379L19.9826 27.7671V32.3608L30.2485 29.8521L30.3237 29.1061L31.5006 17.4817L31.6228 16.296Z" fill="white"/>
</svg>
