<svg width="40" height="40" viewBox="0 0 40 40" fill="none" xmlns="http://www.w3.org/2000/svg">
<path d="M0 0L3.64408 35.9959L20.0245 40L36.3597 36.0014L40 0H0Z" fill="#E44D26"/>
<path d="M20 36.9394L6.76383 33.7038L3.64988 2.9436H20V36.9394Z" fill="#F16529"/>
<path d="M27.084 11.7746H20V7.35913H32.5566L32.4368 8.54369L31.206 20.7114H20V16.296H26.6263L27.084 11.7746ZM25.9554 22.9192H30.9822L30.2807 29.8521L20.023 32.3628L20 32.3573V27.7634L20.0219 27.7685L25.5988 26.4407L25.9554 22.9192Z" fill="#EBEBEB"/>
<path d="M20.0173 20.7115H13.851L14.4324 26.4379L20.0174 27.7671V32.3608L9.75156 29.8521L9.6763 29.1061L8.4994 17.4817L8.37725 16.296H20.0173V20.7115ZM20.0173 11.7638V11.7746H7.92161L7.82126 10.7822L7.59297 8.54369L7.47333 7.35913H20.0173V11.7638Z" fill="white"/>
</svg>
