<svg width="20" height="23" viewBox="0 0 20 23" fill="none" xmlns="http://www.w3.org/2000/svg">
<path d="M4.02222 9.95389C5.62222 13.57 8.2 16.5217 11.3444 18.3744L13.7889 15.5633C14.0889 15.2183 14.5333 15.1033 14.9222 15.2567C16.1667 15.7294 17.5111 15.985 18.8889 15.985C19.5 15.985 20 16.56 20 17.2628V21.7222C20 22.425 19.5 23 18.8889 23C8.45556 23 0 13.2761 0 1.27778C0 0.575 0.5 0 1.11111 0H5C5.61111 0 6.11111 0.575 6.11111 1.27778C6.11111 2.875 6.33333 4.40833 6.74444 5.83944C6.86667 6.28667 6.77778 6.785 6.46667 7.14278L4.02222 9.95389Z" fill="white"/>
</svg>
